<svg width="11" height="14" viewBox="0 0 11 14" fill="none" xmlns="http://www.w3.org/2000/svg">
<g clip-path="url(#clip0_226_1157)">
<path d="M8.94231 2.29136C8.34321 1.62417 7.37088 1.62417 6.77178 2.29136L2.25392 7.32261C1.22022 8.47378 1.22022 10.3386 2.25392 11.4898C3.28763 12.641 4.96218 12.641 5.99588 11.4898L9.72803 7.33355C9.99566 7.0355 10.4327 7.0355 10.7003 7.33355C10.968 7.63159 10.968 8.11831 10.7003 8.41636L6.96821 12.5726C5.39678 14.3226 2.85303 14.3226 1.2816 12.5726C-0.28983 10.8226 -0.28983 7.98979 1.2816 6.23979L5.79946 1.20854C6.93629 -0.0574707 8.7778 -0.0574707 9.91463 1.20854C11.0515 2.47456 11.0515 4.52534 9.91463 5.79136L5.59321 10.6039C4.89097 11.3859 3.75169 11.3859 3.04946 10.6039C2.34722 9.82183 2.34722 8.55308 3.04946 7.77105L6.58517 3.83354C6.8528 3.5355 7.28986 3.5355 7.55749 3.83354C7.82513 4.13159 7.82513 4.61831 7.55749 4.91636L4.02178 8.85386C3.85727 9.03706 3.85727 9.33784 4.02178 9.52104C4.18629 9.70425 4.45638 9.70425 4.62088 9.52104L8.94231 4.70854C9.54142 4.04136 9.54142 2.95854 8.94231 2.29136Z" fill="black"/>
</g>
<defs>
<clipPath id="clip0_226_1157">
<rect width="11" height="14" fill="white"/>
</clipPath>
</defs>
</svg>
