<svg width="253" height="32" viewBox="0 0 253 32" fill="none" xmlns="http://www.w3.org/2000/svg">
<path d="M0.05 13.5C0.05 11.44 0.51 9.6 1.43 7.98C2.37 6.34 3.64 5.07 5.24 4.17C6.86 3.25 8.67 2.79 10.67 2.79C13.01 2.79 15.06 3.39 16.82 4.59C18.58 5.79 19.81 7.45 20.51 9.57H15.68C15.2 8.57 14.52 7.82 13.64 7.32C12.78 6.82 11.78 6.57 10.64 6.57C9.42 6.57 8.33 6.86 7.37 7.44C6.43 8 5.69 8.8 5.15 9.84C4.63 10.88 4.37 12.1 4.37 13.5C4.37 14.88 4.63 16.1 5.15 17.16C5.69 18.2 6.43 19.01 7.37 19.59C8.33 20.15 9.42 20.43 10.64 20.43C11.78 20.43 12.78 20.18 13.64 19.68C14.52 19.16 15.2 18.4 15.68 17.4H20.51C19.81 19.54 18.58 21.21 16.82 22.41C15.08 23.59 13.03 24.18 10.67 24.18C8.67 24.18 6.86 23.73 5.24 22.83C3.64 21.91 2.37 20.64 1.43 19.02C0.51 17.4 0.05 15.56 0.05 13.5ZM33.4573 7.14C34.7173 7.14 35.8373 7.42 36.8173 7.98C37.7973 8.52 38.5573 9.33 39.0973 10.41C39.6573 11.47 39.9373 12.75 39.9373 14.25V24H35.7373V14.82C35.7373 13.5 35.4073 12.49 34.7473 11.79C34.0873 11.07 33.1873 10.71 32.0473 10.71C30.8873 10.71 29.9673 11.07 29.2873 11.79C28.6273 12.49 28.2973 13.5 28.2973 14.82V24H24.0973V1.8H28.2973V9.45C28.8373 8.73 29.5573 8.17 30.4573 7.77C31.3573 7.35 32.3573 7.14 33.4573 7.14ZM42.8513 15.63C42.8513 13.95 43.1813 12.46 43.8413 11.16C44.5213 9.86 45.4313 8.86 46.5713 8.16C47.7313 7.46 49.0213 7.11 50.4413 7.11C51.6813 7.11 52.7613 7.36 53.6813 7.86C54.6213 8.36 55.3713 8.99 55.9313 9.75V7.38H60.1613V24H55.9313V21.57C55.3913 22.35 54.6413 23 53.6813 23.52C52.7413 24.02 51.6513 24.27 50.4113 24.27C49.0113 24.27 47.7313 23.91 46.5713 23.19C45.4313 22.47 44.5213 21.46 43.8413 20.16C43.1813 18.84 42.8513 17.33 42.8513 15.63ZM55.9313 15.69C55.9313 14.67 55.7313 13.8 55.3313 13.08C54.9313 12.34 54.3913 11.78 53.7113 11.4C53.0313 11 52.3013 10.8 51.5213 10.8C50.7413 10.8 50.0213 10.99 49.3613 11.37C48.7013 11.75 48.1613 12.31 47.7413 13.05C47.3413 13.77 47.1413 14.63 47.1413 15.63C47.1413 16.63 47.3413 17.51 47.7413 18.27C48.1613 19.01 48.7013 19.58 49.3613 19.98C50.0413 20.38 50.7613 20.58 51.5213 20.58C52.3013 20.58 53.0313 20.39 53.7113 20.01C54.3913 19.61 54.9313 19.05 55.3313 18.33C55.7313 17.59 55.9313 16.71 55.9313 15.69ZM68.4634 9.96C69.0034 9.08 69.7034 8.39 70.5634 7.89C71.4434 7.39 72.4434 7.14 73.5634 7.14V11.55H72.4534C71.1334 11.55 70.1334 11.86 69.4534 12.48C68.7934 13.1 68.4634 14.18 68.4634 15.72V24H64.2634V7.38H68.4634V9.96ZM78.5223 5.4C77.7823 5.4 77.1623 5.17 76.6623 4.71C76.1823 4.23 75.9423 3.64 75.9423 2.94C75.9423 2.24 76.1823 1.66 76.6623 1.2C77.1623 0.719999 77.7823 0.479999 78.5223 0.479999C79.2623 0.479999 79.8723 0.719999 80.3523 1.2C80.8523 1.66 81.1023 2.24 81.1023 2.94C81.1023 3.64 80.8523 4.23 80.3523 4.71C79.8723 5.17 79.2623 5.4 78.5223 5.4ZM80.5923 7.38V24H76.3923V7.38H80.5923ZM89.6319 10.83V18.87C89.6319 19.43 89.7619 19.84 90.0219 20.1C90.3019 20.34 90.7619 20.46 91.4019 20.46H93.3519V24H90.7119C87.1719 24 85.4019 22.28 85.4019 18.84V10.83H83.4219V7.38H85.4019V3.27H89.6319V7.38H93.3519V10.83H89.6319ZM112.273 7.38L101.983 31.86H97.5127L101.113 23.58L94.4527 7.38H99.1627L103.453 18.99L107.803 7.38H112.273Z" fill="#84ADFF"/>
<path d="M134.525 20.01H126.185L124.805 24H120.395L127.925 3.03H132.815L140.345 24H135.905L134.525 20.01ZM133.385 16.65L130.355 7.89L127.325 16.65H133.385ZM158.85 7.38V24H154.62V21.9C154.08 22.62 153.37 23.19 152.49 23.61C151.63 24.01 150.69 24.21 149.67 24.21C148.37 24.21 147.22 23.94 146.22 23.4C145.22 22.84 144.43 22.03 143.85 20.97C143.29 19.89 143.01 18.61 143.01 17.13V7.38H147.21V16.53C147.21 17.85 147.54 18.87 148.2 19.59C148.86 20.29 149.76 20.64 150.9 20.64C152.06 20.64 152.97 20.29 153.63 19.59C154.29 18.87 154.62 17.85 154.62 16.53V7.38H158.85ZM161.914 15.69C161.914 13.97 162.264 12.47 162.964 11.19C163.664 9.89 164.634 8.89 165.874 8.19C167.114 7.47 168.534 7.11 170.134 7.11C172.194 7.11 173.894 7.63 175.234 8.67C176.594 9.69 177.504 11.13 177.964 12.99H173.434C173.194 12.27 172.784 11.71 172.204 11.31C171.644 10.89 170.944 10.68 170.104 10.68C168.904 10.68 167.954 11.12 167.254 12C166.554 12.86 166.204 14.09 166.204 15.69C166.204 17.27 166.554 18.5 167.254 19.38C167.954 20.24 168.904 20.67 170.104 20.67C171.804 20.67 172.914 19.91 173.434 18.39H177.964C177.504 20.19 176.594 21.62 175.234 22.68C173.874 23.74 172.174 24.27 170.134 24.27C168.534 24.27 167.114 23.92 165.874 23.22C164.634 22.5 163.664 21.5 162.964 20.22C162.264 18.92 161.914 17.41 161.914 15.69ZM185.931 10.83V18.87C185.931 19.43 186.061 19.84 186.321 20.1C186.601 20.34 187.061 20.46 187.701 20.46H189.651V24H187.011C183.471 24 181.701 22.28 181.701 18.84V10.83H179.721V7.38H181.701V3.27H185.931V7.38H189.651V10.83H185.931ZM194.802 5.4C194.062 5.4 193.442 5.17 192.942 4.71C192.462 4.23 192.222 3.64 192.222 2.94C192.222 2.24 192.462 1.66 192.942 1.2C193.442 0.719999 194.062 0.479999 194.802 0.479999C195.542 0.479999 196.152 0.719999 196.632 1.2C197.132 1.66 197.382 2.24 197.382 2.94C197.382 3.64 197.132 4.23 196.632 4.71C196.152 5.17 195.542 5.4 194.802 5.4ZM196.872 7.38V24H192.672V7.38H196.872ZM208.401 24.27C206.801 24.27 205.361 23.92 204.081 23.22C202.801 22.5 201.791 21.49 201.051 20.19C200.331 18.89 199.971 17.39 199.971 15.69C199.971 13.99 200.341 12.49 201.081 11.19C201.841 9.89 202.871 8.89 204.171 8.19C205.471 7.47 206.921 7.11 208.521 7.11C210.121 7.11 211.571 7.47 212.871 8.19C214.171 8.89 215.191 9.89 215.931 11.19C216.691 12.49 217.071 13.99 217.071 15.69C217.071 17.39 216.681 18.89 215.901 20.19C215.141 21.49 214.101 22.5 212.781 23.22C211.481 23.92 210.021 24.27 208.401 24.27ZM208.401 20.61C209.161 20.61 209.871 20.43 210.531 20.07C211.211 19.69 211.751 19.13 212.151 18.39C212.551 17.65 212.751 16.75 212.751 15.69C212.751 14.11 212.331 12.9 211.491 12.06C210.671 11.2 209.661 10.77 208.461 10.77C207.261 10.77 206.251 11.2 205.431 12.06C204.631 12.9 204.231 14.11 204.231 15.69C204.231 17.27 204.621 18.49 205.401 19.35C206.201 20.19 207.201 20.61 208.401 20.61ZM229.362 7.14C231.342 7.14 232.942 7.77 234.162 9.03C235.382 10.27 235.992 12.01 235.992 14.25V24H231.792V14.82C231.792 13.5 231.462 12.49 230.802 11.79C230.142 11.07 229.242 10.71 228.102 10.71C226.942 10.71 226.022 11.07 225.342 11.79C224.682 12.49 224.352 13.5 224.352 14.82V24H220.152V7.38H224.352V9.45C224.912 8.73 225.622 8.17 226.482 7.77C227.362 7.35 228.322 7.14 229.362 7.14ZM246.346 24.27C244.986 24.27 243.766 24.03 242.686 23.55C241.606 23.05 240.746 22.38 240.106 21.54C239.486 20.7 239.146 19.77 239.086 18.75H243.316C243.396 19.39 243.706 19.92 244.246 20.34C244.806 20.76 245.496 20.97 246.316 20.97C247.116 20.97 247.736 20.81 248.176 20.49C248.636 20.17 248.866 19.76 248.866 19.26C248.866 18.72 248.586 18.32 248.026 18.06C247.486 17.78 246.616 17.48 245.416 17.16C244.176 16.86 243.156 16.55 242.356 16.23C241.576 15.91 240.896 15.42 240.316 14.76C239.756 14.1 239.476 13.21 239.476 12.09C239.476 11.17 239.736 10.33 240.256 9.57C240.796 8.81 241.556 8.21 242.536 7.77C243.536 7.33 244.706 7.11 246.046 7.11C248.026 7.11 249.606 7.61 250.786 8.61C251.966 9.59 252.616 10.92 252.736 12.6H248.716C248.656 11.94 248.376 11.42 247.876 11.04C247.396 10.64 246.746 10.44 245.926 10.44C245.166 10.44 244.576 10.58 244.156 10.86C243.756 11.14 243.556 11.53 243.556 12.03C243.556 12.59 243.836 13.02 244.396 13.32C244.956 13.6 245.826 13.89 247.006 14.19C248.206 14.49 249.196 14.8 249.976 15.12C250.756 15.44 251.426 15.94 251.986 16.62C252.566 17.28 252.866 18.16 252.886 19.26C252.886 20.22 252.616 21.08 252.076 21.84C251.556 22.6 250.796 23.2 249.796 23.64C248.816 24.06 247.666 24.27 246.346 24.27Z" fill="#F9C500"/>
</svg>
