<svg width="56" height="53" viewBox="0 0 56 53" fill="none" xmlns="http://www.w3.org/2000/svg">
<path fill-rule="evenodd" clip-rule="evenodd" d="M0.407471 26.5C0.407471 11.8644 12.4421 0 27.2875 0C42.1329 0 54.1675 11.8644 54.1675 26.5C54.1675 41.1355 42.1329 53 27.2875 53C12.4421 53 0.407471 41.1355 0.407471 26.5Z" fill="white"/>
<path d="M28.8889 19.3823C29.1917 19.1002 29.7412 18.9566 30.5319 18.9566C30.8811 18.9566 31.143 18.9616 31.3226 18.9715C31.5023 18.9814 31.6718 18.9962 31.836 19.021V15.6803C31.41 15.6159 30.9889 15.5714 30.5729 15.5417C30.1572 15.512 29.7566 15.4922 29.3767 15.4922C27.7592 15.4922 26.5219 15.8584 25.6541 16.5909C24.7865 17.3234 24.35 18.3677 24.35 19.7238V22.3272H21.9111V25.5736H24.35V38.323H28.5448V25.5736H31.7334V22.3272H28.4319V20.9809C28.4319 20.194 28.586 19.6644 28.8889 19.3823Z" fill="black"/>
</svg>
