<svg width="18" height="18" viewBox="0 0 18 18" fill="none" xmlns="http://www.w3.org/2000/svg">
<g clip-path="url(#clip0_57_20)">
<path d="M17.7437 16.5972L13.5142 12.6774C14.7914 11.3323 15.5695 9.53111 15.5695 7.56254C15.5636 3.39448 12.0766 0 7.7818 0C3.4929 0 0 3.39448 0 7.56254C0 11.7306 3.4929 15.1251 7.7818 15.1251C9.43915 15.1251 10.9777 14.6171 12.243 13.7511L16.5794 17.7749C16.7398 17.925 16.9477 18 17.1556 18C17.3754 18 17.6011 17.9134 17.7615 17.746C18.0882 17.4227 18.0764 16.9089 17.7437 16.5972ZM1.50884 7.56254C1.50884 4.20269 4.32454 1.46632 7.7818 1.46632C11.2391 1.46632 14.0548 4.20269 14.0548 7.56254C14.0548 10.9224 11.2391 13.6588 7.7818 13.6588C4.32454 13.6588 1.50884 10.9224 1.50884 7.56254Z" fill="black"/>
</g>
<defs>
<clipPath id="clip0_57_20">
<rect width="18" height="18" fill="white"/>
</clipPath>
</defs>
</svg>
